<svg xmlns="http://www.w3.org/2000/svg" width="604.223" height="581.701" viewBox="0 0 604.223 581.701">
  <g id="Group_19848" data-name="Group 19848" transform="translate(-970.789 -7050.298)">
    <path id="Intersection_1" data-name="Intersection 1" d="M-1749.211,841a49.069,49.069,0,0,1,3.113-7.62l181.869-356.939a3.351,3.351,0,0,1-1.507-4.485l20.291-39.823a3.35,3.35,0,0,1,4.514-1.416l6.013-11.8a3.349,3.349,0,0,1-1.509-4.483l20.292-39.825a3.35,3.35,0,0,1,4.514-1.416l11.272-22.125a3.349,3.349,0,0,1-1.508-4.483l9.019-17.7a3.35,3.35,0,0,1,4.514-1.416l21.043-41.3a48.473,48.473,0,0,1,12.326-15.415,49.471,49.471,0,0,1,16.847-9.131,50.581,50.581,0,0,1,19.191-2.166,51.3,51.3,0,0,1,19.355,5.482l226.62,115.469a51.269,51.269,0,0,1,15.811,12.436,50.593,50.593,0,0,1,9.527,16.8,49.465,49.465,0,0,1,2.516,19,48.475,48.475,0,0,1-5.226,19.032l-52.231,102.51a3.349,3.349,0,0,1,1.508,4.484l-33.818,66.373a3.351,3.351,0,0,1-4.515,1.417L-1350.724,841Zm480.474-476.77a5.138,5.138,0,0,0,2.242,6.9,5.138,5.138,0,0,0,6.9-2.244,5.137,5.137,0,0,0-2.244-6.9,5.1,5.1,0,0,0-2.322-.559A5.136,5.136,0,0,0-1268.737,364.23Zm-51.053-26.013a2.571,2.571,0,0,0,1.122,3.453l35.813,18.247a2.569,2.569,0,0,0,3.452-1.122,2.568,2.568,0,0,0-1.122-3.45l-35.812-18.247a2.555,2.555,0,0,0-1.163-.28A2.566,2.566,0,0,0-1319.791,338.217Z" transform="translate(2720 6791)" fill="#3b6bc3"/>
    <g id="Group_19850" data-name="Group 19850">
      <g id="Group_19849" data-name="Group 19849">
        <path id="Intersection_2" data-name="Intersection 2" d="M-1727.766,841q.457-1.083,1-2.139l274.889-539.5a32.233,32.233,0,0,1,8.2-10.256,32.9,32.9,0,0,1,11.21-6.075,33.686,33.686,0,0,1,12.771-1.441,34.146,34.146,0,0,1,12.881,3.65l28.561,14.552a4.241,4.241,0,0,1,2.1,2.4,4.067,4.067,0,0,1-.179,3.129l-1.158,2.274a17.723,17.723,0,0,0-1.912,6.964,18.107,18.107,0,0,0,.921,6.952,18.554,18.554,0,0,0,3.488,6.149,18.787,18.787,0,0,0,5.788,4.551l125.515,63.953a17.059,17.059,0,0,0,6.44,1.824,16.855,16.855,0,0,0,6.385-.72,16.469,16.469,0,0,0,5.606-3.038,16.132,16.132,0,0,0,4.1-5.128l.75-1.471,1.126-2.21a4.179,4.179,0,0,1,5.629-1.767l28.564,14.554a34.154,34.154,0,0,1,10.523,8.276,33.678,33.678,0,0,1,6.341,11.178,32.911,32.911,0,0,1,1.675,12.641,32.248,32.248,0,0,1-3.477,12.663L-1372.845,841Z" transform="translate(2720 6791)" fill="#5290ff"/>
        <g id="Group_20" data-name="Group 20" transform="translate(1170.545 7213.825)">
          <g id="Group_1956" data-name="Group 1956" transform="matrix(0.883, 0.469, -0.469, 0.883, 149.551, 0)">
            <path id="Path_1" data-name="Path 1" d="M0,49.279c0-.2.014-.4.014-.6q0-24.017,0-48.034c0-.2,0-.394,0-.643H.548c5.5,0,11-.009,16.5.008a17.036,17.036,0,0,1,2.9.193,14.567,14.567,0,0,1,4.028,1.159,11.058,11.058,0,0,1,3.436,2.45A34.781,34.781,0,0,1,29.651,6.82a.706.706,0,0,1,.008.511q-1.686,6.151-3.389,12.3-1.584,5.749-3.153,11.5a.632.632,0,0,1-.507.5,18.238,18.238,0,0,1-5.456.676q-3,0-6.01,0c-.593,0-.594,0-.594.612q0,8.183-.008,16.365ZM10.551,22.714c1.921,0,3.768.04,5.612-.019a5.178,5.178,0,0,0,2.32-.632,4.408,4.408,0,0,0,2.033-2.214,9.408,9.408,0,0,0,.241-6.756,4.793,4.793,0,0,0-2.009-2.652,5.9,5.9,0,0,0-3.106-.855c-1.493-.019-2.987-.04-4.48-.056-.61-.006-.611,0-.611.6q0,6.031,0,12.061Z" transform="translate(0 0)" fill="#95bbff"/>
            <path id="Path_2" data-name="Path 2" d="M17.664,49.153c-.837-2.757-1.685-5.51-2.5-8.273a.754.754,0,0,0-.878-.652c-4.56.028-9.121.016-13.682.016H0c.358-1.086.693-2.115,1.036-3.142.652-1.949,1.317-3.893,1.955-5.847a.513.513,0,0,1,.58-.43c2.742.013,5.485.008,8.228.007h.614c-.044-.2-.066-.35-.108-.49-1.329-4.4-2.639-8.816-4.01-13.207a2.99,2.99,0,0,1,.1-1.986c1.155-3.4,2.284-6.808,3.426-10.212C12.362,3.328,12.907,1.721,13.487,0c.359,1.107.686,2.107,1.006,3.109q1.535,4.8,3.065,9.6c.94,2.952,1.87,5.907,2.812,8.858,1.008,3.158,2.029,6.312,3.037,9.47.807,2.526,1.6,5.058,2.4,7.585.862,2.7,1.737,5.4,2.6,8.107.256.8.483,1.616.723,2.423Z" transform="translate(81.751 0.126)" fill="#95bbff"/>
            <path id="Path_3" data-name="Path 3" d="M37.254,31.793c.138-.327.292-.648.413-.981q2.073-5.72,4.136-11.443C43,16.046,44.19,12.718,45.391,9.4c1.087-3,2.19-6,3.274-9.011A.48.48,0,0,1,49.193,0c3.375.009,6.751.005,10.126.007.119,0,.238.021.432.04-.2.586-.374,1.132-.56,1.674q-1.6,4.665-3.2,9.33C54.725,14.774,53.469,18.5,52.2,22.221c-.788,2.312-1.592,4.618-2.386,6.928q-1.5,4.358-2.992,8.716-1.865,5.45-3.713,10.906a.506.506,0,0,1-.567.4q-5.016-.009-10.033,0a.483.483,0,0,1-.537-.435c-.511-1.945-1.034-3.886-1.549-5.83q-.944-3.563-1.882-7.127-.923-3.5-1.847-6.993-1.067-4.007-2.149-8.01c-.007-.026-.039-.044-.117-.128a2.881,2.881,0,0,0-.183.4c-.663,2.4-1.316,4.8-1.984,7.2-.688,2.471-1.4,4.938-2.084,7.409q-1.7,6.1-3.386,12.212c-.029.1-.076.2-.106.305-.3.993-.3.993-1.344.993-3.052,0-6.1-.011-9.155.012a.862.862,0,0,1-.913-.562C4.164,46.327,3.029,44.045,1.9,41.759,1.316,40.574.711,39.4.156,38.2a1.546,1.546,0,0,1-.123-.964c1.144-4.258,2.316-8.508,3.486-12.76q.9-3.288,1.821-6.572c.02-.071.051-.14.106-.285L11.514,31.8l.173,0c.118-.38.247-.757.353-1.14q1.4-5.04,2.787-10.082c.854-3.11,1.691-6.226,2.549-9.335.71-2.576,1.44-5.148,2.159-7.722.289-1.036.588-2.069.848-3.112.082-.329.239-.405.547-.4q3.791.013,7.582,0a.443.443,0,0,1,.508.4Q30.5,6.2,32,12q1.43,5.556,2.863,11.112,1.058,4.1,2.118,8.207c.04.155.1.306.144.459Z" transform="translate(28.732 0.022)" fill="#95bbff"/>
          </g>
          <g id="XMLID_197_" transform="matrix(0.883, 0.469, -0.469, 0.883, 119.855, 82.508)">
            <path id="XMLID_221_" d="M35.053,65.975a6.33,6.33,0,0,0,6.181-6.181V45.358h4.127a3.9,3.9,0,0,0,4.127-4.127V0H0V41.231a3.9,3.9,0,0,0,4.127,4.127H8.255V59.794a6.33,6.33,0,0,0,6.181,6.181,6.33,6.33,0,0,0,6.181-6.181V45.358h8.255V59.794A6.33,6.33,0,0,0,35.053,65.975Z" transform="translate(16.489 32.777)" fill="#95bbff"/>
            <path id="XMLID_222_" d="M6.181,41.231a6.33,6.33,0,0,0,6.181-6.181V6.179A6.34,6.34,0,0,0,6.181,0,6.34,6.34,0,0,0,0,6.179V35.05A6.33,6.33,0,0,0,6.181,41.231Z" transform="translate(70.105 32.777)" fill="#95bbff"/>
            <path id="XMLID_223_" d="M6.181,41.231a6.33,6.33,0,0,0,6.181-6.181V6.179A6.34,6.34,0,0,0,6.181,0,6.34,6.34,0,0,0,0,6.179V35.05A6.33,6.33,0,0,0,6.181,41.231Z" transform="translate(0 32.777)" fill="#95bbff"/>
            <path id="XMLID_224_" d="M44.535.623a1.975,1.975,0,0,0-2.879,0L36.121,6.14l-.255.255A24.445,24.445,0,0,0,24.8,3.923h-.121A24.442,24.442,0,0,0,13.623,6.4l-.256-.255L7.832.623a1.975,1.975,0,0,0-2.879,0,1.98,1.98,0,0,0,0,2.876l5.355,5.356a22.313,22.313,0,0,0-4.651,4.174A24.234,24.234,0,0,0,.037,27.359c0,.057-.008.113-.011.169Q0,28.085,0,28.646H49.488q0-.561-.026-1.117c0-.057-.008-.113-.012-.169a24.228,24.228,0,0,0-5.621-14.33A22.3,22.3,0,0,0,39.18,8.855L44.535,3.5A1.98,1.98,0,0,0,44.535.623ZM14.428,21.44a3.092,3.092,0,1,1,3.092-3.092A3.092,3.092,0,0,1,14.428,21.44Zm20.632,0a3.092,3.092,0,1,1,3.092-3.092A3.092,3.092,0,0,1,35.06,21.44Z" transform="translate(16.489 0)" fill="#95bbff"/>
          </g>
          <g id="XMLID_228_" transform="matrix(0.883, 0.469, -0.469, 0.883, 51.669, 191.585)">
            <path id="XMLID_229_" d="M4.642,14.361c-9.3,16.146-3.389,40.649,6.9,55.505,5.136,7.428,10.336,14.1,17.458,14.1.134,0,.269,0,.407-.008a21.558,21.558,0,0,0,8.1-2.159,22.187,22.187,0,0,1,9.6-2.275,20.866,20.866,0,0,1,9.136,2.2,19.355,19.355,0,0,0,8.752,2.1c8.022-.149,12.948-7.344,17.294-13.691a60.686,60.686,0,0,0,7.577-15.52l.031-.1a.9.9,0,0,0-.479-1.106l-.066-.028c-1.413-.578-13.8-6.075-13.935-21.059C75.293,20.143,84.71,13.7,86.6,12.528l.088-.055a.9.9,0,0,0,.256-1.267C80.443,1.693,70.48.26,66.469.087,65.887.029,65.286,0,64.683,0c-4.711,0-9.224,1.779-12.85,3.209-2.5.987-4.665,1.839-6.156,1.839-1.675,0-3.85-.863-6.367-1.862C35.943,1.85,32.127.336,28.088.336l-.285,0A27.518,27.518,0,0,0,4.642,14.361Z" transform="translate(0 26.096)" fill="#95bbff"/>
            <path id="XMLID_230_" d="M22.694,0C17.006.232,10.183,3.734,6.1,8.511,2.638,12.526-.747,19.22.145,25.968a.9.9,0,0,0,.824.781c.384.03.776.045,1.166.045,5.562,0,11.562-3.077,15.659-8.031C22.107,13.531,24.287,6.817,23.627.8A.908.908,0,0,0,22.694,0Z" transform="translate(43.783 0)" fill="#95bbff"/>
          </g>
        </g>
      </g>
    </g>
  </g>
</svg>
